<svg width="16" height="19" viewBox="0 0 16 19" fill="none" xmlns="http://www.w3.org/2000/svg">
<path fill-rule="evenodd" clip-rule="evenodd" d="M0 7.85919C0 3.52982 3.45094 0 7.73256 0C12.0142 0 15.4651 3.52982 15.4651 7.85919C15.4651 9.94928 14.8695 12.1935 13.8165 14.1323C12.7648 16.0688 11.2282 17.7515 9.30603 18.6499C8.30748 19.1167 7.15764 19.1167 6.15908 18.6499C4.23689 17.7515 2.70031 16.0688 1.64863 14.1323C0.595653 12.1935 0 9.94928 0 7.85919ZM7.73256 1.32558C4.20513 1.32558 1.32558 4.23964 1.32558 7.85919C1.32558 9.71242 1.85814 11.7406 2.81351 13.4997C3.77017 15.2612 5.12207 16.702 6.72039 17.4491C7.36321 17.7495 8.10191 17.7495 8.74473 17.4491C10.3431 16.702 11.695 15.2612 12.6516 13.4997C13.607 11.7406 14.1395 9.71242 14.1395 7.85919C14.1395 4.23964 11.26 1.32558 7.73256 1.32558ZM7.73256 5.74419C6.63441 5.74419 5.74419 6.63441 5.74419 7.73256C5.74419 8.83071 6.63441 9.72093 7.73256 9.72093C8.83071 9.72093 9.72093 8.83071 9.72093 7.73256C9.72093 6.63441 8.83071 5.74419 7.73256 5.74419ZM4.41861 7.73256C4.41861 5.90231 5.90231 4.4186 7.73256 4.4186C9.56281 4.4186 11.0465 5.90231 11.0465 7.73256C11.0465 9.5628 9.56281 11.0465 7.73256 11.0465C5.90231 11.0465 4.41861 9.5628 4.41861 7.73256Z" fill="#1078D7"/>
</svg>
