<svg width="19" height="14" viewBox="0 0 19 14" fill="none" xmlns="http://www.w3.org/2000/svg">
<path d="M17.3301 0H1.66992C0.75102 0 0 0.747717 0 1.66992V11.6895C0 12.612 0.751502 13.3594 1.66992 13.3594H17.3301C18.249 13.3594 19 12.6117 19 11.6895V1.66992C19 0.747494 18.2486 0 17.3301 0ZM17.0737 1.11328L9.93136 8.27888C9.71375 8.49716 9.28636 8.49731 9.06864 8.27888L1.92635 1.11328H17.0737ZM1.11328 11.4848V1.87458L5.9028 6.67969L1.11328 11.4848ZM1.92635 12.2461L6.68874 7.46819L8.28018 9.06482C8.93234 9.7191 10.0679 9.71884 10.7199 9.06482L12.3113 7.46823L17.0737 12.2461H1.92635ZM17.8867 11.4848L13.0972 6.67969L17.8867 1.87458V11.4848Z" fill="#1078D7"/>
</svg>
