<svg width="19" height="19" viewBox="0 0 19 19" fill="none" xmlns="http://www.w3.org/2000/svg">
<path fill-rule="evenodd" clip-rule="evenodd" d="M2.40434 0.821241C3.59904 -0.436559 5.57519 -0.200903 6.56276 1.19588L7.79137 2.93358C8.58129 4.05081 8.51456 5.60405 7.57183 6.59658L7.33326 6.84774C7.3326 6.84948 7.3319 6.85136 7.33118 6.85339C7.31857 6.88882 7.2867 7.00163 7.31807 7.21574C7.3831 7.65958 7.72572 8.56151 9.11672 10.026C10.5121 11.4951 11.3585 11.8413 11.7507 11.905C11.9199 11.9325 12.0084 11.9086 12.0366 11.8987L12.4347 11.4795C13.2861 10.5832 14.6135 10.4066 15.6837 11.0226L17.5452 12.0941C19.1362 13.0098 19.5065 15.25 18.235 16.5886L16.8509 18.0458C16.419 18.5006 15.8299 18.8888 15.102 18.9606C13.325 19.136 9.20834 18.9076 4.89268 14.364C0.865631 10.1243 0.10061 6.43652 0.00390228 4.63477L0.652904 4.59994L0.00390222 4.63477C-0.0438785 3.74456 0.352944 2.98098 0.875037 2.43131L2.40434 0.821241ZM5.36942 2.03961C4.87022 1.33357 3.97342 1.29144 3.46401 1.82775L1.9347 3.43783C1.61182 3.77776 1.44241 4.16739 1.46329 4.55644C1.54225 6.0275 2.17574 9.38141 5.95235 13.3575C9.91218 17.5265 13.5603 17.6442 14.9585 17.5062C15.2349 17.4789 15.5194 17.3255 15.7913 17.0393L17.1753 15.5821C17.7724 14.9535 17.6159 13.8211 16.8161 13.3607L14.9547 12.2893C14.4551 12.0018 13.87 12.0906 13.4944 12.486L13.0507 12.9532L12.537 12.4653C13.0506 12.9532 13.05 12.9539 13.0493 12.9546L13.0479 12.9561L13.045 12.959L13.0389 12.9653L13.0249 12.9791C13.0148 12.9888 13.0033 12.9995 12.9902 13.011C12.964 13.034 12.9316 13.0602 12.8926 13.0878C12.8146 13.1431 12.7106 13.204 12.5791 13.2559C12.3102 13.3619 11.9551 13.4188 11.5164 13.3476C10.6614 13.2087 9.54082 12.5946 8.05706 11.0325C6.56892 9.46575 5.99937 8.29683 5.87202 7.42762C5.8072 6.98521 5.85907 6.63094 5.95427 6.36342C6.00108 6.23187 6.05636 6.12697 6.10733 6.0473C6.13275 6.00758 6.15698 5.97432 6.1784 5.94726C6.1891 5.93372 6.19912 5.92174 6.20823 5.91126L6.22121 5.89666L6.22716 5.89019L6.22999 5.88716L6.23136 5.8857C6.23203 5.88499 6.2327 5.88428 6.75072 6.3763L6.23271 5.88427L6.51217 5.59006C6.94626 5.13304 7.00933 4.35905 6.59803 3.77731L5.36942 2.03961Z" fill="#1078D7"/>
</svg>
